<?xml version="1.0" encoding="utf-8"?>
<!-- Generator: Adobe Illustrator 15.1.0, SVG Export Plug-In . SVG Version: 6.00 Build 0)  -->
<!DOCTYPE svg PUBLIC "-//W3C//DTD SVG 1.1//EN" "http://www.w3.org/Graphics/SVG/1.1/DTD/svg11.dtd">
<svg version="1.1" id="Layer_1" xmlns="http://www.w3.org/2000/svg" xmlns:xlink="http://www.w3.org/1999/xlink" x="0px" y="0px"
	 width="100px" height="100px" viewBox="0 0 100 100" enable-background="new 0 0 100 100" xml:space="preserve">
<path fill-rule="evenodd" clip-rule="evenodd" d="M79.941,43.642h-4c-1.104,0-2-0.895-2-2c0-1.104,0.896-2,2-2h4
	c1.104,0,2,0.896,2,2C81.941,42.748,81.045,43.642,79.941,43.642z M72.084,30.33c-0.781,0.781-2.047,0.781-2.828,0
	c-0.781-0.78-0.781-2.047,0-2.828l2.828-2.828c0.781-0.78,2.047-0.78,2.828,0c0.781,0.781,0.781,2.048,0,2.828L72.084,30.33z
	 M69.137,45.937L69.137,45.937c1.75,2.084,2.805,4.77,2.805,7.704c0,5.223-3.342,9.652-7.998,11.301v-4.381
	c2.389-1.383,4-3.961,4-6.92c0-4.417-3.582-7.999-8-7.999c-1.6,0-3.084,0.48-4.334,1.291c-1.23-5.317-5.973-9.29-11.664-9.29
	c-6.627,0-11.998,5.372-11.998,11.998c0,3.55,1.551,6.728,4,8.925v4.916c-4.777-2.768-8-7.922-8-13.841
	c0-8.835,7.162-15.997,15.998-15.997c1.572,0,3.09,0.231,4.523,0.654c2.195-2.827,5.617-4.654,9.475-4.654
	c6.627,0,11.998,5.371,11.998,11.998C69.941,43.158,69.65,44.602,69.137,45.937z M57.943,33.644c-2.211,0-4.215,0.898-5.662,2.35
	c2.34,1.435,4.285,3.452,5.629,5.854c0.664-0.113,1.338-0.205,2.033-0.205c2.125,0,4.119,0.559,5.85,1.527l0,0
	c0.096-0.494,0.15-1.004,0.15-1.527C65.943,37.224,62.361,33.644,57.943,33.644z M57.943,25.644c-1.104,0-2-0.895-2-2v-3.999
	c0-1.104,0.896-1.999,2-1.999c1.105,0,2,0.895,2,1.999v3.999C59.943,24.75,59.049,25.644,57.943,25.644z M43.803,30.33l-2.828-2.828
	c-0.779-0.78-0.779-2.047,0-2.828c0.781-0.78,2.049-0.78,2.828,0l2.828,2.828c0.781,0.781,0.781,2.048,0,2.828
	C45.85,31.111,44.584,31.111,43.803,30.33z M41.945,53.641c1.105,0,2,0.896,2,2v15.998c0,1.105-0.895,2-2,2c-1.104,0-2-0.895-2-2
	V55.641C39.945,54.537,40.842,53.641,41.945,53.641z M49.945,57.641c1.104,0,2,0.895,2,2v15.998c0,1.104-0.896,2-2,2
	c-1.105,0-2-0.896-2-2V59.641C47.945,58.535,48.84,57.641,49.945,57.641z M57.943,53.641c1.105,0,2,0.896,2,2v15.998
	c0,1.105-0.895,2-2,2c-1.104,0-2-0.895-2-2V55.641C55.943,54.537,56.84,53.641,57.943,53.641z"/>
</svg>
