<?xml version="1.0" encoding="utf-8"?>
<!-- Generator: Adobe Illustrator 15.1.0, SVG Export Plug-In . SVG Version: 6.00 Build 0)  -->
<!DOCTYPE svg PUBLIC "-//W3C//DTD SVG 1.1//EN" "http://www.w3.org/Graphics/SVG/1.1/DTD/svg11.dtd">
<svg version="1.1" id="Layer_1" xmlns="http://www.w3.org/2000/svg" xmlns:xlink="http://www.w3.org/1999/xlink" x="0px" y="0px"
	 width="100px" height="100px" viewBox="0 0 100 100" enable-background="new 0 0 100 100" xml:space="preserve">
<path fill-rule="evenodd" clip-rule="evenodd" d="M79.996,43.642h-3.999c-1.104,0-2-0.895-2-2c0-1.104,0.896-2,2-2h3.999
	c1.104,0,2,0.896,2,2C81.996,42.748,81.101,43.642,79.996,43.642z M72.14,30.33c-0.781,0.781-2.047,0.781-2.828,0
	c-0.781-0.78-0.781-2.047,0-2.828l2.828-2.828c0.781-0.78,2.047-0.78,2.828,0c0.781,0.781,0.781,2.048,0,2.828L72.14,30.33z
	 M69.192,45.938L69.192,45.938c1.748,2.084,2.805,4.77,2.805,7.703l0,0c0,6.627-5.371,11.998-11.998,11.998c-0.266,0-0.614,0-1,0
	c0-1.371-0.319-2.742-0.943-3.998c0.777,0,1.451,0,1.943,0c4.418,0,7.999-3.582,7.999-8s-3.581-7.998-7.999-7.998
	c-1.601,0-3.084,0.48-4.334,1.291c-1.231-5.318-5.973-9.291-11.664-9.291c-6.627,0-11.998,5.372-11.998,11.998
	c0,1.406,0.254,2.748,0.697,4h-0.005c1.437,4.053,4.987,7.104,9.331,7.824c-0.637,1.215-0.969,2.547-1.012,3.887
	c-6.096-1.152-10.964-5.76-12.498-11.711h0.011c-0.33-1.279-0.524-2.615-0.524-4c0-8.834,7.162-15.997,15.998-15.997
	c1.572,0,3.089,0.231,4.523,0.654c2.195-2.827,5.617-4.654,9.475-4.654c6.627,0,11.998,5.371,11.998,11.998
	C69.997,43.158,69.705,44.602,69.192,45.938z M57.999,33.644c-2.213,0-4.215,0.898-5.662,2.35c2.34,1.435,4.285,3.452,5.629,5.854
	c0.664-0.113,1.336-0.205,2.033-0.205c2.125,0,4.118,0.559,5.85,1.527l0,0c0.096-0.494,0.149-1.004,0.149-1.527
	C65.998,37.224,62.417,33.644,57.999,33.644z M57.999,25.644c-1.104,0-2-0.895-2-2v-3.999c0-1.104,0.896-1.999,2-1.999
	s2,0.895,2,1.999v3.999C59.999,24.75,59.104,25.644,57.999,25.644z M43.858,30.33l-2.828-2.828c-0.781-0.78-0.781-2.047,0-2.828
	c0.781-0.78,2.047-0.78,2.828,0l2.828,2.828c0.781,0.781,0.781,2.048,0,2.828C45.905,31.111,44.64,31.111,43.858,30.33z M50,58.57
	l3.535,3.535c1.952,1.951,1.952,5.117,0,7.068c-1.952,1.953-5.118,1.953-7.07,0c-1.952-1.951-1.952-5.117,0-7.068L50,58.57z"/>
</svg>
