<?xml version="1.0" encoding="utf-8"?>
<!-- Generator: Adobe Illustrator 15.1.0, SVG Export Plug-In . SVG Version: 6.00 Build 0)  -->
<!DOCTYPE svg PUBLIC "-//W3C//DTD SVG 1.1//EN" "http://www.w3.org/Graphics/SVG/1.1/DTD/svg11.dtd">
<svg version="1.1" id="Layer_1" xmlns="http://www.w3.org/2000/svg" xmlns:xlink="http://www.w3.org/1999/xlink" x="0px" y="0px"
	 width="100px" height="100px" viewBox="0 0 100 100" enable-background="new 0 0 100 100" xml:space="preserve">
<path fill-rule="evenodd" clip-rule="evenodd" d="M79.996,43.642h-3.999c-1.104,0-2-0.895-2-2c0-1.104,0.896-2,2-2h3.999
	c1.104,0,2,0.896,2,2C81.996,42.748,81.101,43.642,79.996,43.642z M72.14,30.33c-0.781,0.781-2.047,0.781-2.828,0
	s-0.781-2.047,0-2.828l2.828-2.828c0.781-0.781,2.047-0.781,2.828,0c0.78,0.781,0.78,2.047,0,2.828L72.14,30.33z M69.192,45.937
	L69.192,45.937c1.342,1.6,2.271,3.555,2.633,5.704h-0.008c0.109,0.652,0.18,1.318,0.18,2c0,6.627-5.372,12-11.998,12
	c-0.28,0-0.649,0-1.062,0l3.584-4.412c3.181-1.057,5.478-4.053,5.478-7.588c0-0.691-0.098-1.359-0.263-2l0,0
	c-0.889-3.448-4.011-5.999-7.736-5.999c-1.601,0-3.083,0.48-4.334,1.291c-1.231-5.316-5.973-9.291-11.664-9.291
	c-6.627,0-11.999,5.373-11.999,12c0,0.682,0.07,1.348,0.181,1.999h-0.014c0.764,4.549,4.088,8.223,8.438,9.506l-1.35,3.777
	c-5.903-1.83-10.33-6.99-11.116-13.283l0,0c-0.082-0.657-0.138-1.321-0.138-1.999c0-8.836,7.162-15.999,15.998-15.999
	c1.572,0,3.089,0.232,4.523,0.655c2.195-2.828,5.618-4.654,9.475-4.654c6.627,0,11.999,5.371,11.999,11.998
	C69.998,43.158,69.705,44.601,69.192,45.937z M57.999,33.644c-2.212,0-4.215,0.898-5.662,2.351c2.34,1.435,4.285,3.451,5.629,5.853
	c0.664-0.113,1.337-0.205,2.033-0.205c2.125,0,4.118,0.559,5.85,1.527l0,0c0.096-0.494,0.149-1.004,0.149-1.527
	C65.998,37.225,62.417,33.644,57.999,33.644z M57.999,25.645c-1.104,0-2-0.896-2-2v-3.999c0-1.104,0.896-2,2-2s2,0.896,2,2v3.999
	C59.999,24.749,59.104,25.645,57.999,25.645z M43.858,30.33l-2.827-2.828c-0.781-0.781-0.781-2.047,0-2.828
	c0.78-0.781,2.047-0.781,2.827,0l2.828,2.828c0.781,0.781,0.781,2.047,0,2.828C45.906,31.111,44.64,31.111,43.858,30.33z M48,51.641
	h9.999l-5.999,10h6.999L46.001,77.639l3.6-11.998h-6.6L48,51.641z"/>
</svg>
