<?xml version="1.0" encoding="utf-8"?>
<!-- Generator: Adobe Illustrator 15.1.0, SVG Export Plug-In . SVG Version: 6.00 Build 0)  -->
<!DOCTYPE svg PUBLIC "-//W3C//DTD SVG 1.1//EN" "http://www.w3.org/Graphics/SVG/1.1/DTD/svg11.dtd">
<svg version="1.1" id="Layer_1" xmlns="http://www.w3.org/2000/svg" xmlns:xlink="http://www.w3.org/1999/xlink" x="0px" y="0px"
	 width="100px" height="100px" viewBox="0 0 100 100" enable-background="new 0 0 100 100" xml:space="preserve">
<path fill-rule="evenodd" clip-rule="evenodd" d="M63.999,64.941v-4.381c2.389-1.383,3.999-3.961,3.999-6.92
	c0-4.417-3.581-7.999-7.998-7.999c-1.601,0-3.084,0.48-4.334,1.291c-1.231-5.317-5.974-9.29-11.665-9.29
	c-6.626,0-11.998,5.372-11.998,11.998c0,3.55,1.55,6.728,3.999,8.925v4.916c-4.776-2.768-7.998-7.922-7.998-13.841
	c0-8.835,7.162-15.997,15.997-15.997c6.004,0,11.229,3.311,13.966,8.203c0.663-0.113,1.336-0.205,2.033-0.205
	c6.626,0,11.998,5.372,11.998,11.999C71.998,58.863,68.656,63.293,63.999,64.941z M42.002,65.639c-1.104,0-1-0.895-1-1.998v-8
	c0-1.104-0.104-2,1-2s1,0.896,1,2v8C43.002,64.744,43.106,65.639,42.002,65.639z M42.002,69.639c1.104,0,1.999,0.896,1.999,2
	c0,1.105-0.895,2-1.999,2s-2-0.895-2-2C40.002,70.535,40.897,69.639,42.002,69.639z M50.001,69.639c-1.104,0-1-0.895-1-2v-7.998
	c0-1.105-0.104-2,1-2s1,0.895,1,2v7.998C51.001,68.744,51.105,69.639,50.001,69.639z M50.001,73.639c1.104,0,1.999,0.895,1.999,2
	c0,1.104-0.895,2-1.999,2s-2-0.896-2-2C48.001,74.533,48.896,73.639,50.001,73.639z M58,65.639c-1.104,0-1-0.895-1-1.998v-8
	c0-1.104-0.104-2,1-2s1,0.896,1,2v8C59,64.744,59.104,65.639,58,65.639z M58,69.639c1.104,0,2,0.896,2,2c0,1.105-0.896,2-2,2
	s-2-0.895-2-2C56,70.535,56.896,69.639,58,69.639z"/>
</svg>
