<?xml version="1.0" encoding="utf-8"?>
<!-- Generator: Adobe Illustrator 15.1.0, SVG Export Plug-In . SVG Version: 6.00 Build 0)  -->
<!DOCTYPE svg PUBLIC "-//W3C//DTD SVG 1.1//EN" "http://www.w3.org/Graphics/SVG/1.1/DTD/svg11.dtd">
<svg version="1.1" id="Layer_1" xmlns="http://www.w3.org/2000/svg" xmlns:xlink="http://www.w3.org/1999/xlink" x="0px" y="0px"
	 width="100px" height="100px" viewBox="0 0 100 100" enable-background="new 0 0 100 100" xml:space="preserve">
<path fill-rule="evenodd" clip-rule="evenodd" d="M65.999,52L65.999,52h-3c-1.105,0-2-0.895-2-1.999s0.895-2,2-2h3
	c1.104,0,2-0.896,2-1.999c0-1.105-0.896-2-2-2c-1.105,0-2-0.896-2-2s0.895-2,2-2c0.137,0,0.271,0.014,0.402,0.041
	c3.121,0.211,5.596,2.783,5.596,5.959C71.997,49.314,69.312,52,65.999,52z M55.999,48.001h-2h-6.998H34.002
	c-1.104,0-1.999,0.896-1.999,2S32.898,52,34.002,52h2h3.999h3h4h3h3.998h2c3.314,0,6,2.687,6,6c0,3.176-2.475,5.748-5.596,5.959
	C56.272,63.986,56.138,64,55.999,64c-1.104,0-2-0.896-2-2c0-1.105,0.896-2,2-2c1.105,0,2-0.896,2-2s-0.895-2-2-2h-2h-3.998h-3h-4h-3
	h-3.999h-2c-3.313,0-5.999-2.686-5.999-5.999c0-3.175,2.475-5.747,5.596-5.959c0.131-0.026,0.266-0.04,0.403-0.04l0,0h12.999h6.998
	h2c1.105,0,2-0.896,2-2s-0.895-2-2-2c-1.104,0-2-0.895-2-2c0-1.104,0.896-2,2-2c0.139,0,0.273,0.015,0.404,0.041
	c3.121,0.211,5.596,2.783,5.596,5.959C61.999,45.314,59.313,48.001,55.999,48.001z"/>
</svg>
