<?xml version="1.0" encoding="utf-8"?>
<!-- Generator: Adobe Illustrator 15.1.0, SVG Export Plug-In . SVG Version: 6.00 Build 0)  -->
<!DOCTYPE svg PUBLIC "-//W3C//DTD SVG 1.1//EN" "http://www.w3.org/Graphics/SVG/1.1/DTD/svg11.dtd">
<svg version="1.1" id="Layer_1" xmlns="http://www.w3.org/2000/svg" xmlns:xlink="http://www.w3.org/1999/xlink" x="0px" y="0px"
	 width="100px" height="100px" viewBox="0 0 100 100" enable-background="new 0 0 100 100" xml:space="preserve">
<path fill-rule="evenodd" clip-rule="evenodd" d="M69.817,46.759L69.817,46.759c1.369,1.949,2.18,4.319,2.18,6.881
	c0,5.223-3.342,9.652-7.998,11.303v-4.381c2.388-1.385,3.999-3.963,3.999-6.922c0-4.417-3.581-7.999-7.999-7.999
	c-1.601,0-3.084,0.48-4.334,1.291c-1.231-5.317-5.973-9.291-11.664-9.291c-6.627,0-11.998,5.373-11.998,12
	c0,3.549,1.55,6.729,3.999,8.924v4.916c-4.777-2.768-7.999-7.922-7.999-13.84c0-8.835,7.162-15.999,15.998-15.999
	c2.002,0,3.914,0.376,5.68,1.048l0,0c1.635-4.682,6.078-8.047,11.318-8.047c0.755,0,1.49,0.078,2.207,0.211
	c-0.131,0.576-0.207,1.174-0.207,1.789c0,4.418,3.58,7.998,7.998,7.998c0.616,0,1.213-0.075,1.789-0.207
	c0.133,0.717,0.211,1.453,0.211,2.207C72.997,41.777,71.786,44.621,69.817,46.759z M59.21,30.852
	c-2.899,0.664-5.174,2.91-5.924,5.775c1.918,1.372,3.523,3.152,4.68,5.221c0.664-0.113,1.336-0.205,2.033-0.205
	c2.617,0,5.033,0.848,7.005,2.271l0,0c0.858-0.98,1.485-2.167,1.786-3.482C63.936,39.527,60.114,35.706,59.21,30.852z
	 M42.001,57.641c1.104,0,2,0.896,2,2c0,1.105-0.896,2-2,2s-2-0.895-2-2C40.001,58.537,40.896,57.641,42.001,57.641z M42.001,65.641
	c1.104,0,2,0.895,2,2c0,1.104-0.896,1.998-2,1.998s-2-0.895-2-1.998C40.001,66.535,40.896,65.641,42.001,65.641z M50,61.641
	c1.104,0,2,0.895,2,2c0,1.104-0.896,2-2,2s-1.999-0.896-1.999-2C48.001,62.535,48.896,61.641,50,61.641z M50,69.639
	c1.104,0,2,0.896,2,2c0,1.105-0.896,2-2,2s-1.999-0.895-1.999-2C48.001,70.535,48.896,69.639,50,69.639z M57.999,57.641
	c1.104,0,2,0.896,2,2c0,1.105-0.896,2-2,2s-2-0.895-2-2C55.999,58.537,56.895,57.641,57.999,57.641z M57.999,65.641
	c1.104,0,2,0.895,2,2c0,1.104-0.896,1.998-2,1.998s-2-0.895-2-1.998C55.999,66.535,56.895,65.641,57.999,65.641z"/>
</svg>
