<svg xmlns="http://www.w3.org/2000/svg" xmlns:xlink="http://www.w3.org/1999/xlink" width="414" height="415" viewBox="0 0 414 415">
  <defs>
    <clipPath id="clip-night">
      <rect width="414" height="415"/>
    </clipPath>
  </defs>
  <g id="night" clip-path="url(#clip-night)">
    <rect width="414" height="415" fill="#243046"/>
    <path id="cloud" d="M178.116,53.739a41.653,41.653,0,0,0-8.258.826,34.058,34.058,0,0,0-47.7-24.214A45.459,45.459,0,0,0,36.7,61.377a37.9,37.9,0,0,0,1.139,75.772h140.28a41.7,41.7,0,1,0,0-83.41Zm0,0" transform="translate(20.001 190.608)" fill="#fff" opacity="0.06"/>
    <path id="cloud-2" data-name="cloud" d="M28.765,37.187a28.73,28.73,0,0,1,5.7.569,23.491,23.491,0,0,1,32.9-16.7,31.355,31.355,0,1,1,58.946,21.4,26.138,26.138,0,0,1-.785,52.263H28.765a28.766,28.766,0,1,1,0-57.531Zm0,0" transform="translate(207.001 83.608)" fill="#fff" opacity="0.04"/>
    <g id="moon" transform="translate(277 20.965)">
      <path id="Path_1" data-name="Path 1" d="M31.37,80.21a48.813,48.813,0,0,0,37.4-80.2A54.671,54.671,0,1,1,0,68.776,48.612,48.612,0,0,0,31.37,80.21Z" fill="#ffeb98"/>
      <path id="Path_2" data-name="Path 2" d="M119.487,42.776a54.619,54.619,0,0,1-76.7,76.7,54.628,54.628,0,1,0,76.7-76.7Z" transform="translate(-33.646 -33.634)" fill="#efcf6e"/>
    </g>
    <path id="cloud-3" data-name="cloud" d="M34.141,44.064a34.1,34.1,0,0,1,6.761.676A27.881,27.881,0,0,1,79.951,24.917a37.215,37.215,0,0,1,69.962,25.4,31.023,31.023,0,0,1-.932,62.03H34.141a34.142,34.142,0,1,1,0-68.283Zm0,0" transform="translate(287.26 78.608)" fill="#333e53"/>
    <path id="cloud-4" data-name="cloud" d="M124.215,37.595a29.048,29.048,0,0,0-5.759.576A23.751,23.751,0,0,0,85.191,21.284a31.7,31.7,0,0,0-59.6,21.638,26.428,26.428,0,0,0,.794,52.842h97.829a29.084,29.084,0,1,0,0-58.169Zm0,0" transform="translate(-51.999 20.608)" fill="#fff" opacity="0.06"/>
    <g id="Group_1" data-name="Group 1" transform="translate(-55 31.992)" opacity="0.92">
      <path id="Path_4" data-name="Path 4" d="M234.109,82.84l.459.93,1.027.149-.743.724.176,1.022-.918-.482-.918.482.176-1.022-.743-.724,1.027-.149Z" fill="#fff6d2"/>
    </g>
    <g id="Group_2" data-name="Group 2" transform="translate(16 -0.008)" opacity="0.51">
      <path id="Path_4-2" data-name="Path 4" d="M234.109,82.84l.459.93,1.027.149-.743.724.176,1.022-.918-.482-.918.482.176-1.022-.743-.724,1.027-.149Z" fill="#fff6d2"/>
    </g>
    <g id="Group_4" data-name="Group 4" transform="translate(-190 52.992)" opacity="0.26">
      <path id="Path_4-3" data-name="Path 4" d="M234.109,82.84l.459.93,1.027.149-.743.724.176,1.022-.918-.482-.918.482.176-1.022-.743-.724,1.027-.149Z" fill="#fff6d2"/>
    </g>
    <g id="Group_6" data-name="Group 6" transform="translate(-190 -67.008)" opacity="0.92">
      <path id="Path_4-4" data-name="Path 4" d="M234.109,82.84l.459.93,1.027.149-.743.724.176,1.022-.918-.482-.918.482.176-1.022-.743-.724,1.027-.149Z" fill="#fff6d2"/>
    </g>
    <g id="Group_7" data-name="Group 7" transform="translate(-3 -58.008)" opacity="0.92">
      <path id="Path_4-5" data-name="Path 4" d="M234.109,82.84l.459.93,1.027.149-.743.724.176,1.022-.918-.482-.918.482.176-1.022-.743-.724,1.027-.149Z" fill="#fff6d2" opacity="0.45"/>
    </g>
    <g id="Group_9" data-name="Group 9" transform="translate(-70 102.992)" opacity="0.48">
      <path id="Path_4-6" data-name="Path 4" d="M234.109,82.84l.459.93,1.027.149-.743.724.176,1.022-.918-.482-.918.482.176-1.022-.743-.724,1.027-.149Z" fill="#fff6d2"/>
    </g>
    <g id="Group_10" data-name="Group 10" transform="translate(30 162.992)" opacity="0.92">
      <path id="Path_4-7" data-name="Path 4" d="M234.109,82.84l.459.93,1.027.149-.743.724.176,1.022-.918-.482-.918.482.176-1.022-.743-.724,1.027-.149Z" fill="#fff6d2"/>
    </g>
    <g id="Group_11" data-name="Group 11" transform="translate(70 112.992)" opacity="0.46">
      <path id="Path_4-8" data-name="Path 4" d="M234.109,82.84l.459.93,1.027.149-.743.724.176,1.022-.918-.482-.918.482.176-1.022-.743-.724,1.027-.149Z" fill="#fff6d2"/>
    </g>
    <g id="Group_13" data-name="Group 13" transform="translate(150 232.992)" opacity="0.92">
      <path id="Path_4-9" data-name="Path 4" d="M234.109,82.84l.459.93,1.027.149-.743.724.176,1.022-.918-.482-.918.482.176-1.022-.743-.724,1.027-.149Z" fill="#fff6d2"/>
    </g>
    <g id="Group_14" data-name="Group 14" transform="translate(30 292.992)" opacity="0.92">
      <path id="Path_4-10" data-name="Path 4" d="M234.109,82.84l.459.93,1.027.149-.743.724.176,1.022-.918-.482-.918.482.176-1.022-.743-.724,1.027-.149Z" fill="#fff6d2"/>
    </g>
    <g id="Group_15" data-name="Group 15" transform="translate(-150 272.992)" opacity="0.92">
      <path id="Path_4-11" data-name="Path 4" d="M234.109,82.84l.459.93,1.027.149-.743.724.176,1.022-.918-.482-.918.482.176-1.022-.743-.724,1.027-.149Z" fill="#fff6d2"/>
    </g>
  </g>
</svg>
