<?xml version="1.0" encoding="utf-8"?>
<!-- Generator: Adobe Illustrator 15.1.0, SVG Export Plug-In . SVG Version: 6.00 Build 0)  -->
<!DOCTYPE svg PUBLIC "-//W3C//DTD SVG 1.1//EN" "http://www.w3.org/Graphics/SVG/1.1/DTD/svg11.dtd">
<svg version="1.1" id="Layer_1" xmlns="http://www.w3.org/2000/svg" xmlns:xlink="http://www.w3.org/1999/xlink" x="0px" y="0px"
	 width="100px" height="100px" viewBox="0 0 100 100" enable-background="new 0 0 100 100" xml:space="preserve">
<path fill-rule="evenodd" clip-rule="evenodd" d="M59.999,65.64c-0.266,0-0.614,0-1,0c0-1.372-0.319-2.742-0.943-4
	c0.777,0,1.451,0,1.943,0c4.418,0,7.999-3.58,7.999-7.998s-3.581-7.999-7.999-7.999c-1.6,0-3.083,0.481-4.334,1.29
	c-1.231-5.316-5.973-9.289-11.664-9.289c-6.627,0-11.998,5.372-11.998,11.998c0,5.953,4.339,10.879,10.023,11.822
	c-0.637,1.217-0.969,2.549-1.012,3.887c-7.406-1.399-13.012-7.895-13.012-15.709c0-8.835,7.162-15.998,15.998-15.998
	c6.004,0,11.229,3.312,13.965,8.204c0.664-0.114,1.337-0.205,2.033-0.205c6.627,0,11.998,5.372,11.998,11.999
	S66.626,65.64,59.999,65.64z M50.001,58.569l3.535,3.535c1.951,1.953,1.951,5.118,0,7.07c-1.953,1.953-5.119,1.953-7.07,0
	c-1.953-1.952-1.953-5.117,0-7.07L50.001,58.569z"/>
</svg>
