<?xml version="1.0" encoding="utf-8"?>
<!-- Generator: Adobe Illustrator 15.1.0, SVG Export Plug-In . SVG Version: 6.00 Build 0)  -->
<!DOCTYPE svg PUBLIC "-//W3C//DTD SVG 1.1//EN" "http://www.w3.org/Graphics/SVG/1.1/DTD/svg11.dtd">
<svg version="1.1" id="Layer_1" xmlns="http://www.w3.org/2000/svg" xmlns:xlink="http://www.w3.org/1999/xlink" x="0px" y="0px"
	 width="100px" height="100px" viewBox="0 0 100 100" enable-background="new 0 0 100 100" xml:space="preserve">
<path fill-rule="evenodd" clip-rule="evenodd" d="M63.943,64.941v-4.381c2.387-1.385,3.998-3.961,3.998-6.92c0-4.418-3.58-8-7.998-8
	c-1.602,0-3.084,0.481-4.334,1.291c-1.232-5.316-5.973-9.29-11.664-9.29c-6.627,0-11.998,5.372-11.998,11.999
	c0,3.549,1.549,6.729,3.998,8.926v4.914c-4.777-2.768-7.998-7.922-7.998-13.84c0-8.836,7.162-15.998,15.998-15.998
	c6.004,0,11.229,3.312,13.965,8.203c0.664-0.113,1.336-0.205,2.033-0.205c6.627,0,11.998,5.373,11.998,12
	C71.941,58.861,68.6,63.293,63.943,64.941z M41.945,53.641c1.104,0,2,0.895,2,2v3.998c0,1.105-0.896,2-2,2c-1.105,0-2-0.895-2-2
	v-3.998C39.945,54.535,40.84,53.641,41.945,53.641z M41.945,65.639c1.104,0,2,0.895,2,2v3.998c0,1.105-0.896,2-2,2
	c-1.105,0-2-0.895-2-2v-3.998C39.945,66.533,40.84,65.639,41.945,65.639z M49.943,57.639c1.105,0,2,0.896,2,2v4c0,1.104-0.895,2-2,2
	c-1.104,0-1.998-0.896-1.998-2v-4C47.945,58.535,48.84,57.639,49.943,57.639z M49.943,69.639c1.105,0,2,0.895,2,1.998v4
	c0,1.105-0.895,2-2,2c-1.104,0-1.998-0.895-1.998-2v-4C47.945,70.533,48.84,69.639,49.943,69.639z M57.943,53.641
	c1.104,0,2,0.895,2,2v3.998c0,1.105-0.896,2-2,2c-1.105,0-2-0.895-2-2v-3.998C55.943,54.535,56.838,53.641,57.943,53.641z
	 M57.943,65.639c1.104,0,2,0.895,2,2v3.998c0,1.105-0.896,2-2,2c-1.105,0-2-0.895-2-2v-3.998
	C55.943,66.533,56.838,65.639,57.943,65.639z"/>
</svg>
