<?xml version="1.0" encoding="utf-8"?>
<!-- Generator: Adobe Illustrator 15.1.0, SVG Export Plug-In . SVG Version: 6.00 Build 0)  -->
<!DOCTYPE svg PUBLIC "-//W3C//DTD SVG 1.1//EN" "http://www.w3.org/Graphics/SVG/1.1/DTD/svg11.dtd">
<svg version="1.1" id="Layer_1" xmlns="http://www.w3.org/2000/svg" xmlns:xlink="http://www.w3.org/1999/xlink" x="0px" y="0px"
	 width="100px" height="100px" viewBox="0 0 100 100" enable-background="new 0 0 100 100" xml:space="preserve">
<path fill-rule="evenodd" clip-rule="evenodd" d="M59.659,46.733l-1.958,1.13c0.188,0.682,0.298,1.396,0.298,2.137
	c0,0.742-0.109,1.456-0.298,2.138l1.958,1.13c0.956,0.553,1.284,1.775,0.731,2.732c-0.552,0.956-1.774,1.284-2.731,0.731
	l-1.954-1.128c-1.003,1.02-2.277,1.766-3.705,2.134v2.262c0,1.104-0.896,2-2,2s-2-0.896-2-2v-2.262
	c-1.428-0.368-2.703-1.114-3.705-2.134l-1.954,1.128c-0.957,0.553-2.18,0.225-2.731-0.731c-0.553-0.957-0.225-2.18,0.731-2.732
	l1.958-1.13c-0.189-0.682-0.298-1.396-0.298-2.138c0-0.741,0.108-1.455,0.298-2.137l-1.958-1.13
	c-0.956-0.553-1.284-1.775-0.731-2.732c0.552-0.956,1.774-1.284,2.731-0.731l1.954,1.128c1.002-1.02,2.277-1.766,3.705-2.134v-2.262
	c0-1.104,0.896-2,2-2s2,0.896,2,2v2.262c1.428,0.368,2.702,1.114,3.705,2.134l1.954-1.128c0.957-0.553,2.18-0.225,2.731,0.731
	C60.943,44.958,60.615,46.181,59.659,46.733z M50,46.001c-2.209,0-4,1.791-4,3.999c0,2.209,1.791,4,4,4s3.999-1.791,3.999-4
	C53.999,47.792,52.209,46.001,50,46.001z"/>
</svg>
