<?xml version="1.0" encoding="utf-8"?>
<!-- Generator: Adobe Illustrator 15.1.0, SVG Export Plug-In . SVG Version: 6.00 Build 0)  -->
<!DOCTYPE svg PUBLIC "-//W3C//DTD SVG 1.1//EN" "http://www.w3.org/Graphics/SVG/1.1/DTD/svg11.dtd">
<svg version="1.1" id="Layer_1" xmlns="http://www.w3.org/2000/svg" xmlns:xlink="http://www.w3.org/1999/xlink" x="0px" y="0px"
	 width="100px" height="100px" viewBox="0 0 100 100" enable-background="new 0 0 100 100" xml:space="preserve">
<path fill-rule="evenodd" clip-rule="evenodd" d="M72.997,71.639c-1.104,0-1.999-0.895-1.999-2c0-1.104,0.895-2,1.999-2s2,0.896,2,2
	C74.997,70.744,74.102,71.639,72.997,71.639z M63.998,64.941v-4.381c2.389-1.383,4-3.961,4-6.92c0-4.417-3.581-7.999-7.999-7.999
	c-1.601,0-3.083,0.48-4.334,1.291c-1.231-5.317-5.973-9.29-11.664-9.29c-6.627,0-11.999,5.372-11.999,11.998
	c0,3.55,1.551,6.728,4,8.925v4.916c-4.777-2.768-7.999-7.922-7.999-13.841c0-8.835,7.162-15.997,15.998-15.997
	c6.004,0,11.229,3.311,13.965,8.203c0.664-0.113,1.337-0.205,2.033-0.205c6.626,0,11.998,5.372,11.998,11.999
	C71.997,58.863,68.655,63.293,63.998,64.941z M31.003,72.639c1.104,0,1.999,0.895,1.999,2c0,1.104-0.895,2-1.999,2s-2-0.896-2-2
	C29.003,73.533,29.898,72.639,31.003,72.639z M41.001,55.641c0-1.104-0.104-2,1-2s1,0.896,1,2v23.998h-2l0,0l0,0
	c0-2.209-1.79-4-3.999-4v-2c1.543,0,2.937,0.6,3.999,1.557V55.641z M50,69.639c-1.104,0-1-0.895-1-2v-7.998c0-1.105-0.104-2,1-2
	s1,0.895,1,2v7.998C51,68.744,51.104,69.639,50,69.639z M50,73.639c1.104,0,2,0.895,2,2c0,1.104-0.896,2-2,2s-2-0.896-2-2
	C48,74.533,48.896,73.639,50,73.639z M57.999,53.641c1.104,0,1,0.896,1,2v18.016c1.823-2.434,4.723-4.018,7.999-4.018v2
	c-4.418,0-7.999,3.582-7.999,8h-2c0-0.273,0.02-0.541,0.041-0.807c-0.054-0.334-0.041-0.744-0.041-1.193V55.641
	C56.999,54.537,56.895,53.641,57.999,53.641z"/>
</svg>
