<?xml version="1.0" encoding="utf-8"?>
<!-- Generator: Adobe Illustrator 15.1.0, SVG Export Plug-In . SVG Version: 6.00 Build 0)  -->
<!DOCTYPE svg PUBLIC "-//W3C//DTD SVG 1.1//EN" "http://www.w3.org/Graphics/SVG/1.1/DTD/svg11.dtd">
<svg version="1.1" id="Layer_1" xmlns="http://www.w3.org/2000/svg" xmlns:xlink="http://www.w3.org/1999/xlink" x="0px" y="0px"
	 width="100px" height="100px" viewBox="0 0 100 100" enable-background="new 0 0 100 100" xml:space="preserve">
<path fill-rule="evenodd" clip-rule="evenodd" d="M50,67.997c-4.417,0-7.999-3.581-7.999-7.999c0-2.025,0.759-3.869,2-5.278V38.001
	c0-3.313,2.687-5.999,5.999-5.999c3.313,0,6,2.686,6,5.999V54.72c1.24,1.409,1.999,3.253,1.999,5.278
	C57.999,64.416,54.418,67.997,50,67.997z M52,56.553v-4.292V42v-3.999c0-1.104-0.896-2-2-2s-1.999,0.896-1.999,2V42v10.261v4.292
	c-1.19,0.693-2,1.969-2,3.445c0,2.209,1.791,3.999,3.999,3.999c2.209,0,4-1.79,4-3.999C54,58.521,53.19,57.246,52,56.553z
	 M50,62.998c-1.656,0-2.999-1.344-2.999-3s1.343-3,2.999-3c1.657,0,3,1.344,3,3S51.657,62.998,50,62.998z"/>
</svg>
