<?xml version="1.0" encoding="utf-8"?>
<!-- Generator: Adobe Illustrator 15.1.0, SVG Export Plug-In . SVG Version: 6.00 Build 0)  -->
<!DOCTYPE svg PUBLIC "-//W3C//DTD SVG 1.1//EN" "http://www.w3.org/Graphics/SVG/1.1/DTD/svg11.dtd">
<svg version="1.1" id="Layer_1" xmlns="http://www.w3.org/2000/svg" xmlns:xlink="http://www.w3.org/1999/xlink" x="0px" y="0px"
	 width="100px" height="100px" viewBox="0 0 100 100" enable-background="new 0 0 100 100" xml:space="preserve">
<g>
	<g>
		<path fill-rule="evenodd" clip-rule="evenodd" d="M50.001,57.641c-1.105,0-2,0.895-2,2v15.998c0,1.104,0.895,2,2,2
			c1.104,0,2-0.896,2-2V59.641C52.001,58.535,51.104,57.641,50.001,57.641z M57.999,53.641c-1.104,0-1.999,0.896-1.999,2v15.998
			c0,1.105,0.896,2,1.999,2c1.105,0,2-0.895,2-2V55.641C59.999,54.537,59.104,53.641,57.999,53.641z M42.001,53.641
			c-1.104,0-1.999,0.896-1.999,2v15.998c0,1.105,0.896,2,1.999,2c1.105,0,2-0.895,2-2V55.641
			C44.001,54.537,43.106,53.641,42.001,53.641z M72.997,38.642c0-0.754-0.078-1.49-0.211-2.207
			c-0.576,0.132-1.173,0.208-1.788,0.208c-4.418,0-7.999-3.581-7.999-7.999c0-0.615,0.076-1.213,0.207-1.788
			c-0.716-0.134-1.451-0.212-2.207-0.212c-5.24,0-9.684,3.365-11.318,8.047c-1.766-0.672-3.678-1.047-5.68-1.047
			c-8.835,0-15.998,7.162-15.998,15.997c0,5.919,3.223,11.074,8,13.841v-4.916c-2.45-2.197-4-5.375-4-8.925
			c0-6.626,5.371-11.998,11.998-11.998c5.691,0,10.434,3.973,11.665,9.29c1.25-0.811,2.733-1.291,4.333-1.291
			c4.418,0,7.999,3.581,7.999,7.999c0,2.959-1.61,5.537-3.999,6.92v4.381c4.656-1.648,7.999-6.078,7.999-11.301
			c0-2.562-0.811-4.933-2.18-6.882C71.786,44.621,72.997,41.777,72.997,38.642z M67.005,43.914
			c-1.973-1.424-4.388-2.271-7.006-2.271c-0.696,0-1.369,0.092-2.033,0.205c-1.156-2.068-2.762-3.849-4.679-5.221
			c0.75-2.865,3.024-5.111,5.924-5.775c0.904,4.855,4.726,8.676,9.579,9.58C68.489,41.746,67.862,42.933,67.005,43.914z"/>
	</g>
</g>
</svg>
