<?xml version="1.0" encoding="utf-8"?>
<!-- Generator: Adobe Illustrator 15.1.0, SVG Export Plug-In . SVG Version: 6.00 Build 0)  -->
<!DOCTYPE svg PUBLIC "-//W3C//DTD SVG 1.1//EN" "http://www.w3.org/Graphics/SVG/1.1/DTD/svg11.dtd">
<svg version="1.1" id="Layer_1" xmlns="http://www.w3.org/2000/svg" xmlns:xlink="http://www.w3.org/1999/xlink" x="0px" y="0px"
	 width="100px" height="100px" viewBox="0 0 100 100" enable-background="new 0 0 100 100" xml:space="preserve">
<path fill-rule="evenodd" clip-rule="evenodd" d="M69.819,46.758L69.819,46.758c1.004,1.431,1.699,3.09,2.003,4.883h-0.004
	c0.109,0.652,0.18,1.317,0.18,2c0,6.627-5.372,11.999-11.999,11.999c-0.279,0-0.648,0-1.062,0l3.584-4.412
	c3.181-1.057,5.478-4.051,5.478-7.587c0-0.691-0.098-1.359-0.263-2l0,0c-0.89-3.447-4.011-5.999-7.737-5.999
	c-1.6,0-3.082,0.481-4.333,1.291c-1.231-5.316-5.974-9.29-11.665-9.29c-6.626,0-11.998,5.372-11.998,11.999
	c0,0.683,0.07,1.348,0.18,1.999h-0.014c0.764,4.548,4.088,8.223,8.438,9.505l-1.35,3.778c-5.903-1.831-10.331-6.991-11.116-13.283
	l0,0c-0.082-0.656-0.139-1.32-0.139-1.999c0-8.836,7.163-15.998,15.998-15.998c2.003,0,3.914,0.375,5.68,1.048l0,0
	c1.635-4.683,6.079-8.047,11.318-8.047c0.756,0,1.492,0.078,2.208,0.211c-0.132,0.576-0.208,1.173-0.208,1.788
	c0,4.418,3.582,7.999,7.999,7.999c0.616,0,1.212-0.076,1.788-0.207c0.134,0.716,0.212,1.452,0.212,2.207
	C72.998,41.776,71.786,44.621,69.819,46.758z M59.212,30.852c-2.9,0.663-5.175,2.909-5.924,5.774l0,0
	c1.916,1.372,3.521,3.153,4.678,5.222c0.664-0.114,1.338-0.205,2.033-0.205c2.619,0,5.033,0.848,7.006,2.271l0,0
	c0.858-0.979,1.485-2.168,1.785-3.482C63.937,39.526,60.115,35.706,59.212,30.852z M48.001,51.641H58l-5.999,9.999H59L46.001,77.638
	l3.6-11.998h-6.599L48.001,51.641z"/>
</svg>
