<?xml version="1.0" encoding="utf-8"?>
<!-- Generator: Adobe Illustrator 15.1.0, SVG Export Plug-In . SVG Version: 6.00 Build 0)  -->
<!DOCTYPE svg PUBLIC "-//W3C//DTD SVG 1.1//EN" "http://www.w3.org/Graphics/SVG/1.1/DTD/svg11.dtd">
<svg version="1.1" id="Layer_1" xmlns="http://www.w3.org/2000/svg" xmlns:xlink="http://www.w3.org/1999/xlink" x="0px" y="0px"
	 width="100px" height="100px" viewBox="0 0 100 100" enable-background="new 0 0 100 100" xml:space="preserve">
<path fill-rule="evenodd" clip-rule="evenodd" d="M69.818,46.759L69.818,46.759c1.369,1.949,2.18,4.319,2.18,6.881
	c0,5.223-3.342,9.652-7.999,11.303v-4.381c2.389-1.385,3.999-3.963,3.999-6.922c0-4.417-3.581-7.999-7.999-7.999
	c-1.6,0-3.083,0.48-4.333,1.291c-1.232-5.317-5.974-9.291-11.665-9.291c-6.626,0-11.998,5.373-11.998,12
	c0,3.549,1.55,6.729,3.999,8.924v4.916c-4.776-2.768-7.999-7.922-7.999-13.84c0-8.835,7.163-15.999,15.998-15.999
	c2.002,0,3.914,0.376,5.68,1.048l0,0c1.635-4.682,6.078-8.047,11.318-8.047c0.755,0,1.491,0.078,2.208,0.211
	c-0.132,0.576-0.208,1.174-0.208,1.789c0,4.418,3.581,7.998,7.999,7.998c0.615,0,1.212-0.075,1.788-0.207
	c0.134,0.717,0.212,1.453,0.212,2.207C72.998,41.777,71.786,44.621,69.818,46.759z M59.211,30.852
	c-2.9,0.664-5.174,2.91-5.924,5.775l0,0c1.917,1.372,3.522,3.152,4.679,5.221c0.664-0.113,1.337-0.205,2.033-0.205
	c2.618,0,5.033,0.847,7.005,2.271l0,0c0.859-0.98,1.486-2.167,1.786-3.482C63.936,39.527,60.115,35.706,59.211,30.852z
	 M43.073,59.641c0.552-0.957,1.775-1.283,2.731-0.732l2.196,1.268v-2.535c0-1.104,0.896-2,2-2c1.104,0,1.999,0.896,1.999,2v2.535
	l2.196-1.268c0.956-0.551,2.18-0.225,2.731,0.732c0.553,0.957,0.225,2.18-0.731,2.732L54,63.641l2.196,1.268
	c0.956,0.553,1.284,1.775,0.731,2.732c-0.552,0.955-1.775,1.283-2.731,0.73L52,67.104v2.535c0,1.105-0.896,2-1.999,2
	c-1.104,0-2-0.895-2-2v-2.535l-2.196,1.268c-0.956,0.553-2.18,0.225-2.731-0.73c-0.552-0.957-0.225-2.18,0.731-2.732l2.196-1.268
	l-2.196-1.268C42.849,61.82,42.521,60.598,43.073,59.641z M50.001,65.641c1.104,0,1.999-0.896,1.999-2c0-1.105-0.896-2-1.999-2
	c-1.104,0-2,0.895-2,2C48.001,64.744,48.896,65.641,50.001,65.641z"/>
</svg>
