<?xml version="1.0" encoding="utf-8"?>
<!-- Generator: Adobe Illustrator 15.1.0, SVG Export Plug-In . SVG Version: 6.00 Build 0)  -->
<!DOCTYPE svg PUBLIC "-//W3C//DTD SVG 1.1//EN" "http://www.w3.org/Graphics/SVG/1.1/DTD/svg11.dtd">
<svg version="1.1" id="Layer_1" xmlns="http://www.w3.org/2000/svg" xmlns:xlink="http://www.w3.org/1999/xlink" x="0px" y="0px"
	 width="100px" height="100px" viewBox="0 0 100 100" enable-background="new 0 0 100 100" xml:space="preserve">
<path fill-rule="evenodd" clip-rule="evenodd" d="M79.996,43.642h-3.999c-1.104,0-2-0.895-2-2c0-1.104,0.896-2,2-2h3.999
	c1.104,0,2,0.896,2,2C81.996,42.748,81.101,43.642,79.996,43.642z M72.14,30.33c-0.781,0.781-2.047,0.781-2.828,0
	s-0.781-2.047,0-2.828l2.828-2.828c0.781-0.781,2.047-0.781,2.828,0c0.78,0.781,0.78,2.047,0,2.828L72.14,30.33z M69.192,45.937
	L69.192,45.937c0.912,1.088,1.63,2.34,2.113,3.705h-4.387c-1.384-2.389-3.961-4-6.92-4c-1.601,0-3.083,0.48-4.334,1.291
	c-1.231-5.316-5.973-9.291-11.664-9.291c-6.627,0-11.999,5.373-11.999,12h-3.999c0-8.836,7.162-15.999,15.998-15.999
	c1.572,0,3.089,0.232,4.523,0.655c2.195-2.828,5.618-4.654,9.475-4.654c6.627,0,11.999,5.371,11.999,11.998
	C69.998,43.158,69.705,44.601,69.192,45.937z M57.999,33.644c-2.212,0-4.215,0.898-5.662,2.351c2.34,1.435,4.285,3.453,5.629,5.853
	c0.664-0.113,1.337-0.205,2.033-0.205c2.125,0,4.118,0.559,5.85,1.527l0,0c0.096-0.494,0.149-1.004,0.149-1.527
	C65.998,37.225,62.417,33.644,57.999,33.644z M57.999,25.645c-1.104,0-2-0.895-2-2v-3.999c0-1.104,0.896-2,2-2s2,0.896,2,2v3.999
	C59.999,24.75,59.104,25.645,57.999,25.645z M43.858,30.33l-2.827-2.828c-0.781-0.781-0.781-2.047,0-2.828
	c0.78-0.781,2.047-0.781,2.827,0l2.828,2.828c0.781,0.781,0.781,2.047,0,2.828C45.906,31.111,44.64,31.111,43.858,30.33z
	 M30.003,53.641h39.995c1.104,0,1.999,0.896,1.999,2c0,1.105-0.896,2-1.999,2H30.003c-1.104,0-2-0.895-2-2
	C28.003,54.537,28.898,53.641,30.003,53.641z M30.003,61.641h39.995c1.104,0,1.999,0.895,1.999,2c0,1.104-0.896,2-1.999,2H30.003
	c-1.104,0-2-0.896-2-2C28.003,62.535,28.898,61.641,30.003,61.641z M30.003,69.639h39.995c1.104,0,1.999,0.896,1.999,2
	c0,1.105-0.896,2-1.999,2H30.003c-1.104,0-2-0.895-2-2C28.003,70.535,28.898,69.639,30.003,69.639z"/>
</svg>
